<svg width="120" height="120" viewBox="0 0 120 120" fill="none" xmlns="http://www.w3.org/2000/svg">
<path d="M74.9973 37.5L35.9467 77.199C34.5402 78.6055 33.75 80.5132 33.75 82.5023C33.75 84.4914 34.5402 86.3991 35.9467 87.8056C37.3532 89.2121 39.2609 90.0023 41.25 90.0023C43.2391 90.0023 45.1468 89.2121 46.5533 87.8056L93.1039 40.6066C94.4967 39.2137 95.6016 37.5601 96.3554 35.7403C97.1093 33.9204 97.4973 31.9698 97.4973 30C97.4973 28.0302 97.1093 26.0796 96.3554 24.2597C95.6016 22.4399 94.4967 20.7863 93.1039 19.3934C91.711 18.0005 90.0574 16.8956 88.2375 16.1418C86.4176 15.388 84.4671 15 82.4973 15C80.5274 15 78.5769 15.388 76.757 16.1418C74.9371 16.8956 73.2835 18.0005 71.8907 19.3934L25.3401 66.5924C21.1205 70.812 18.75 76.5349 18.75 82.5023C18.75 88.4697 21.1205 94.1926 25.3401 98.4122C29.5597 102.632 35.2826 105.002 41.25 105.002C47.2174 105.002 52.9403 102.632 57.1599 98.4122L95.6223 60" stroke="#E95518" stroke-width="4" stroke-linecap="round" stroke-linejoin="round"/>
</svg>
