<svg width="120" height="120" viewBox="0 0 120 120" fill="none" xmlns="http://www.w3.org/2000/svg">
<path d="M56.4802 46.2205L38.6245 28.3961C36.8031 26.5779 35.5781 24.3133 35.219 22.1005C34.8599 19.8877 35.396 17.9079 36.7095 16.5967C38.0231 15.2855 40.0063 14.7503 42.223 15.1088C44.4397 15.4673 46.7083 16.6902 48.5297 18.5084L76 45.9304M46.2846 57.136L22.7874 33.68C20.9631 31.8589 19.7701 29.5568 19.4708 27.2801C19.1715 25.0034 19.7905 22.9387 21.1916 21.5401C22.5926 20.1414 24.661 19.5236 26.9417 19.8223C29.2224 20.1211 31.5286 21.312 33.3529 23.1331L56.7401 46.4792M38.3604 69L14.8631 45.544C13.0388 43.7229 12.4714 42.1147 12.1102 39.8998C11.749 37.6849 12.284 35.704 13.5975 34.3928C14.911 33.0816 16.8954 32.5476 19.1142 32.9081C21.3329 33.2687 22.944 33.8351 24.7683 35.6563L45.5141 56.3656" stroke="#E95518" stroke-width="4" stroke-linecap="round" stroke-linejoin="round"/>
<path d="M77.343 72.939C73.6819 69.3067 71.5377 64.4669 71.382 59.4844C71.2263 54.502 73.0718 49.785 76.5127 46.3711L69.6107 39.5232C67.7802 37.707 66.708 35.2871 66.6302 32.7959C66.5523 30.3046 66.8109 28.6052 68.5313 26.8982C70.2517 25.1913 71.9646 24.9348 74.4755 25.012C76.9863 25.0893 79.4253 26.153 81.2558 27.9692L95.0598 41.6651C102.382 48.9298 106.67 58.6093 106.982 68.5742C107.293 78.5391 103.602 87.9732 96.7204 94.8009C89.8388 101.629 80.3303 105.291 70.2867 104.982C60.2432 104.673 50.4873 100.418 43.1652 93.1533L16.9376 67.1312C15.1071 65.315 13.0819 62.3419 13.004 59.8507C12.9641 58.5723 13.2012 57.0189 14.6646 55.5669C16.1903 54.0531 17.6113 53.8771 18.9823 53.9193C21.7243 54.0036 24.6077 55.5875 26.59 57.5543L38.3494 69.2216" stroke="#E95518" stroke-width="4" stroke-linecap="round" stroke-linejoin="round"/>
</svg>
