<svg width="109" height="120" viewBox="0 0 109 120" fill="none" xmlns="http://www.w3.org/2000/svg">
<g clip-path="url(#clip0_8970:172354)">
<path d="M108.386 80.5236C108.26 80.7768 108.134 81.0339 108.004 81.291C105.71 85.5834 103.405 89.8757 101.091 94.1681C101.045 94.2525 101.003 94.3408 100.949 94.4214C100.877 94.5411 100.777 94.6417 100.658 94.7145C100.539 94.7873 100.404 94.8302 100.265 94.8396H8.38838C8.20485 94.8469 8.02318 94.8003 7.86562 94.7056C7.70806 94.6109 7.58145 94.4721 7.50128 94.3063C5.06684 89.8527 2.62859 85.3953 0.186505 80.9341C0.0602393 80.738 -0.00692749 80.5095 -0.00692749 80.2761C-0.00692749 80.0426 0.0602393 79.8141 0.186505 79.618C6.12601 69.2861 12.0541 58.9491 17.9706 48.6069C27.0991 32.6678 36.225 16.721 45.3484 0.76656C45.4694 0.515627 45.6639 0.307715 45.9057 0.17059C46.1476 0.0334657 46.4254 -0.026344 46.702 -0.00085079C51.5199 0.0221715 56.334 -0.00085079 61.1519 -0.00085079H61.4386C61.62 -0.0121732 61.8008 0.0301385 61.9584 0.120846C62.1161 0.211553 62.2438 0.346673 62.3257 0.509477C62.6546 1.08504 62.986 1.65804 63.3199 2.22848L91.6154 51.0358C97.1139 60.521 102.616 70.0036 108.122 79.4837C108.233 79.6717 108.321 79.8674 108.417 80.0631L108.386 80.5236ZM105.935 81.2181H31.4836C31.3489 81.2151 31.2166 81.1821 31.0961 81.1216C30.9757 81.0611 30.8701 80.9744 30.787 80.868C30.704 80.7615 30.6456 80.6379 30.6159 80.506C30.5863 80.3741 30.5862 80.2372 30.6157 80.1053C30.6615 79.9395 30.7296 79.7807 30.8183 79.6334C33.1737 75.5814 35.533 71.5282 37.896 67.4737L38.049 67.2013L37.919 66.9941C35.8906 63.9762 34.7388 60.4516 34.5923 56.8144C34.5483 55.7397 34.5905 54.6631 34.7185 53.5951C34.9044 51.9722 35.3003 50.3805 35.8962 48.8602C37.0944 45.8033 39.0413 43.0988 41.557 40.997C44.0726 38.8951 47.0757 37.4636 50.2887 36.8349L50.7016 36.7428C50.411 36.102 46.7441 29.6788 46.5797 29.5253C34.3718 50.6649 22.1589 71.8262 9.94081 93.0093H99.1826C99.2398 93.0035 99.2974 93.0035 99.3546 93.0093C99.5611 93.0439 99.6605 92.9364 99.737 92.7676C101.748 89.0124 103.762 85.2598 105.778 81.5097C105.84 81.4291 105.874 81.3447 105.935 81.2181V81.2181ZM8.35779 92.0309L8.54515 91.7239C10.8394 87.7257 13.1425 83.7275 15.4546 79.7293C19.3905 72.9121 23.3276 66.0937 27.2661 59.274L45.727 27.2998C45.769 27.2269 45.8111 27.1501 45.8608 27.0772C45.9445 26.9506 46.0582 26.8467 46.1916 26.7749C46.325 26.703 46.4741 26.6654 46.6256 26.6654C46.777 26.6654 46.9261 26.703 47.0595 26.7749C47.193 26.8467 47.3066 26.9506 47.3903 27.0772C47.4497 27.1644 47.5033 27.2554 47.5509 27.3497L52.5485 36.2209L52.7167 36.501C57.4977 36.1649 62.2347 37.6074 66.0233 40.553C69.8317 43.4697 72.4501 47.6794 73.3883 52.3939C74.3265 57.1084 73.5202 62.0044 71.1203 66.1653H83.1C70.8412 45.0283 58.5874 23.8989 46.3388 2.77718C46.2394 2.94601 46.1667 3.06879 46.0979 3.19158C32.1897 27.4801 18.2778 51.7687 4.362 76.0572C3.59726 77.3887 2.83252 78.7432 2.06777 80.0554C2.01566 80.1324 1.9878 80.2233 1.9878 80.3164C1.9878 80.4094 2.01566 80.5003 2.06777 80.5773C4.10709 84.2941 6.14641 88.0148 8.18572 91.7393C8.23543 91.8198 8.28514 91.9004 8.35779 92.0309ZM67.0977 62.8693C66.2254 61.0684 65.1365 59.3816 63.8552 57.8466C62.3102 59.3684 60.5902 60.7003 58.7314 61.8141L61.2092 67.2627C63.4729 66.173 65.5071 64.8108 67.0977 62.8616V62.8693ZM60.1806 67.6963C59.37 65.9082 58.5594 64.1355 57.7411 62.3244C55.6925 63.3075 53.4962 63.944 51.2408 64.2084C51.6488 66.0747 52.2326 67.8978 52.9844 69.6532C54.8198 69.4959 59.1559 68.2987 60.1806 67.6886V67.6963ZM50.0057 56.2926C50.2085 58.5822 50.5391 60.8586 50.9961 63.111C53.1754 62.8787 55.2983 62.2699 57.2708 61.3114L54.2501 55.0954C52.8932 55.6766 51.4663 56.0765 50.0057 56.2849V56.2926ZM63.1211 56.9641C61.6967 55.3196 60.1814 53.7568 58.5823 52.2828C57.5812 53.2013 56.4656 53.9855 55.2633 54.6158L58.242 60.7551C59.1635 60.4174 62.5399 57.7813 63.1211 56.9564V56.9641ZM51.7646 69.7568C51.4511 68.8512 51.1261 67.9764 50.8508 67.0709C50.5755 66.1653 50.3422 65.2483 50.086 64.3504C49.0804 64.3197 48.0786 64.3312 47.0806 64.2468C46.0826 64.1624 45.1037 63.9897 44.1019 63.8631C44.1019 64.0588 44.1019 64.266 44.1287 64.4732C44.1707 65.0909 44.1822 65.7164 44.274 66.3303C44.4111 67.1725 44.6354 67.9981 44.9431 68.7937C44.9662 68.8553 45.0048 68.9099 45.055 68.9522C45.1052 68.9945 45.1655 69.0232 45.2299 69.0354C46.1215 69.2894 47.0319 69.4716 47.9524 69.5803C48.6445 69.657 49.3404 69.7146 50.0363 69.7491C50.6175 69.7683 51.1911 69.7491 51.7646 69.7491V69.7568ZM44.8819 56.0854C44.4118 58.2418 44.1557 60.4396 44.1172 62.6467C44.1937 62.6698 44.2472 62.6928 44.3007 62.7043C46.057 63.098 47.8552 63.2707 49.6539 63.2184C49.7304 63.208 49.8058 63.1913 49.8795 63.1686C49.436 60.9277 49.1148 58.6946 48.9083 56.4154C47.5557 56.4964 46.1986 56.3827 44.8781 56.0777L44.8819 56.0854ZM66.8683 51.4809C65.2043 50.1812 63.3902 49.0874 61.4654 48.2232C60.9581 49.4262 60.2494 50.5332 59.37 51.4963C60.9667 52.9778 62.4843 54.5429 63.9164 56.1851C65.1733 54.7993 66.1719 53.1981 66.8645 51.4579L66.8683 51.4809ZM67.7592 52.2752C66.991 54.0191 65.9435 55.625 64.6582 57.0293C65.2394 57.8274 65.8053 58.5833 66.3598 59.3776C66.9142 60.1718 67.3769 61.0045 67.8893 61.8256L67.9695 61.7182C69.1289 60.0595 70.0625 58.2529 70.7456 56.3463C70.7691 56.2839 70.7783 56.2169 70.7723 56.1505C70.7663 56.084 70.7454 56.0198 70.7112 55.9626C70.0037 54.6542 69.0923 53.4676 68.0116 52.4478C67.9313 52.3749 67.851 52.3251 67.7554 52.2521L67.7592 52.2752ZM41.0315 54.3088C41.0036 54.3364 40.9792 54.3674 40.9588 54.4009C40.8403 54.6388 40.7217 54.8805 40.6109 55.1261C39.9188 56.6105 39.4325 58.1829 39.1655 59.7996C39.1522 59.8694 39.1572 59.9415 39.18 60.0087C39.2028 60.076 39.2426 60.1361 39.2955 60.1833C40.2855 61.1658 41.4938 61.8983 42.821 62.3206C42.8807 62.3271 42.9409 62.3271 43.0007 62.3206C43.0655 60.1261 43.333 57.9424 43.7998 55.7976C42.8008 55.4465 41.8647 54.936 41.0276 54.2858L41.0315 54.3088ZM62.0237 43.7224C62.0466 44.321 62.104 44.8735 62.081 45.4452C62.0581 46.0169 61.9434 46.5963 61.8707 47.1719C63.7642 48.0339 65.559 49.0991 67.2239 50.349C67.4197 49.6482 67.5351 48.9273 67.5681 48.2002C67.5975 47.3855 67.5655 46.5697 67.4725 45.7599C67.4684 45.6904 67.4457 45.6234 67.4066 45.566C67.3675 45.5085 67.3136 45.4628 67.2507 45.4337C65.6566 44.6374 63.9608 44.0655 62.211 43.7339C62.1487 43.7158 62.0846 43.7042 62.0198 43.6994L62.0237 43.7224ZM60.6395 68.7668C58.3546 69.698 55.9689 70.3573 53.5312 70.7314C53.5656 70.812 53.5809 70.8657 53.6077 70.9156C54.0796 71.8157 54.6559 72.6568 55.3245 73.4212C55.3582 73.4617 55.4027 73.4919 55.4527 73.5082C55.5028 73.5245 55.5564 73.5262 55.6075 73.5133C56.0931 73.425 56.5863 73.3559 57.0758 73.26C58.6713 72.9526 60.2263 72.4621 61.7101 71.7981C61.7843 71.7637 61.8558 71.724 61.9242 71.6792L60.6395 68.7668ZM61.6642 68.3179L62.9146 71.2034L63.0331 71.1573L63.2128 71.0691C64.9672 70.1029 66.5605 68.8679 67.9351 67.4085C68.0084 67.3365 68.0555 67.2419 68.069 67.1399V66.4301C68.0307 65.6937 67.8891 64.9665 67.6484 64.2698C67.6292 64.2122 67.5986 64.1585 67.5604 64.0703C65.8913 65.8569 63.886 67.294 61.6604 68.2987L61.6642 68.3179ZM52.3114 70.8619C51.1953 70.924 50.0763 70.9112 48.9618 70.8235C47.8632 70.7306 46.7705 70.5769 45.6887 70.363C45.8655 70.6966 46.0595 71.0206 46.27 71.3338C46.8042 72.1436 47.4883 72.843 48.2851 73.3943C48.4094 73.4795 48.5524 73.5334 48.7018 73.5516C49.6616 73.6399 50.6137 73.7358 51.5849 73.7703C52.3497 73.7972 53.0915 73.7435 53.8486 73.7205C53.9156 73.7089 53.981 73.6896 54.0436 73.6629C53.3619 72.7894 52.7796 71.8422 52.3076 70.8388L52.3114 70.8619ZM49.6004 48.5033C49.6386 50.748 49.7228 52.962 49.914 55.1683C50.8316 55.1184 53.2062 54.4431 53.7377 54.0632L50.7169 48.2156L49.6004 48.5033ZM39.0852 61.5071L39.0087 61.5417C39.0355 62.0366 39.0546 62.5355 39.089 63.0304C39.1672 63.9751 39.3598 64.9067 39.6626 65.8046C39.7242 65.9948 39.8398 66.1628 39.9952 66.2881C40.9064 67.0623 41.9189 67.7078 43.0045 68.2066C43.2033 68.2987 43.4098 68.3793 43.6163 68.4637L43.6622 68.4215C43.0886 66.8483 43.0313 65.2022 42.9892 63.5331C41.5576 63.1332 40.2261 62.435 39.0814 61.4841L39.0852 61.5071ZM71.2427 54.6733C71.2732 54.5736 71.2809 54.539 71.2924 54.5007C71.5687 53.446 71.7505 52.3686 71.8353 51.2814C71.854 51.0726 71.8359 50.8622 71.7818 50.6598C71.5059 49.7633 71.1581 48.8907 70.7417 48.0506C70.6905 47.927 70.6136 47.8158 70.5161 47.7244C69.9808 47.2793 69.4379 46.8419 68.8949 46.4083C68.821 46.3592 68.7444 46.3144 68.6655 46.274C68.8199 47.905 68.6523 49.5505 68.1722 51.1164C69.3649 52.1337 70.3986 53.325 71.2388 54.6503L71.2427 54.6733ZM48.7936 55.2527C48.7936 55.1338 48.763 55.0148 48.7554 54.892C48.7133 54.2359 48.6674 53.5759 48.6292 52.916C48.5909 52.256 48.5527 51.5231 48.5298 50.8248C48.5298 50.2761 48.5298 49.7312 48.503 49.1825C48.503 48.9753 48.4686 48.7719 48.4495 48.5609L47.9218 48.4995L47.4018 48.4266C46.4533 50.5282 45.6957 52.7114 45.1381 54.9496C45.6505 55.1952 48.025 55.4254 48.7936 55.2527V55.2527ZM53.3821 46.3546L58.5708 50.6981C59.3891 49.8386 60.2801 48.3614 60.4139 47.7398C58.3049 46.85 56.132 46.1214 53.9136 45.5603L53.3821 46.3546ZM57.7373 51.5231C57.6597 51.441 57.578 51.3628 57.4926 51.289C56.4448 50.3863 55.3907 49.4909 54.3303 48.6031C53.795 48.1542 53.2406 47.7321 52.6938 47.2947C52.6211 47.2371 52.5485 47.1565 52.4414 47.2294L51.7149 47.7398L54.7471 53.6066C55.8331 53.0509 56.839 52.35 57.7373 51.5231V51.5231ZM60.7963 46.6692C61.0659 45.6301 61.0659 44.539 60.7963 43.4998C59.7256 43.2044 54.9842 43.0931 54.3609 43.3272V44.509C56.5528 45.0802 58.703 45.802 60.7963 46.6692V46.6692ZM38.1598 58.7061H38.2287C38.4128 57.7895 38.6764 56.8907 39.0164 56.0201C39.3567 55.1606 39.7429 54.3165 40.1176 53.4531C39.4032 52.7038 38.8511 51.8141 38.4963 50.8401C38.4733 50.8932 38.4465 50.9445 38.416 50.9936C37.7447 51.7938 37.1828 52.6803 36.7451 53.6297C36.6988 53.7519 36.6818 53.8833 36.6954 54.0134C36.6954 54.2589 36.7565 54.5045 36.791 54.7501C36.9482 55.9104 37.2944 57.0368 37.8157 58.0845C37.9228 58.3224 38.0451 58.5181 38.1598 58.7061V58.7061ZM67.1474 44.0524C67.0366 43.7646 66.9486 43.5037 66.8377 43.2504C66.5843 42.6143 66.1626 42.0597 65.618 41.6465C65.2624 41.3894 64.9182 41.117 64.5588 40.8791C64.4164 40.7843 64.2653 40.7033 64.1076 40.6374C62.8378 40.1233 61.4769 39.874 60.108 39.9045C60.051 39.9108 59.9946 39.9224 59.9397 39.939C60.6394 40.6249 61.1912 41.4477 61.561 42.3564C61.6107 42.4753 61.7063 42.4868 61.8134 42.506C62.9158 42.6885 64.0025 42.9566 65.0635 43.308C65.7671 43.5344 66.4209 43.7991 67.1474 44.0677V44.0524ZM44.0522 54.6465C44.6257 52.3768 45.3933 50.161 46.3464 48.0237L45.704 47.64C44.1157 49.3588 42.7205 51.2478 41.5438 53.2728C42.2951 53.8756 43.1434 54.3454 44.0522 54.6618V54.6465ZM68.3825 63.0074C68.7589 63.9379 69.0159 64.9127 69.1473 65.9082C69.197 65.8775 69.2199 65.8699 69.2276 65.8583C69.3079 65.7624 69.3881 65.6627 69.4608 65.5667C70.2394 64.5113 70.941 63.4008 71.56 62.2438C71.7795 61.852 71.8891 61.4078 71.8774 60.9584C71.8738 60.2974 71.8162 59.6378 71.7053 58.9862C71.6288 58.5679 71.5218 58.1574 71.4224 57.7199C70.952 58.6485 70.5123 59.5464 70.042 60.4327C69.5496 61.3338 68.9951 62.1992 68.3825 63.0228V63.0074ZM40.7179 52.4594C41.919 50.4328 43.3287 48.5385 44.924 46.8074L44.6869 46.3853C44.6869 46.3623 44.6563 46.3392 44.6334 46.3009C42.696 47.202 40.9228 48.4224 39.3873 49.9115C39.6133 50.863 40.0704 51.7436 40.7179 52.4747V52.4594ZM60.2915 42.2528C60.2735 42.2057 60.2531 42.1596 60.2303 42.1147C59.798 41.3569 59.2226 40.6909 58.5364 40.1539C58.4824 40.1131 58.4205 40.0842 58.3546 40.069C58.2887 40.0538 58.2204 40.0526 58.1541 40.0657C57.1387 40.2458 56.1427 40.522 55.1792 40.8906C54.6362 41.0978 54.1086 41.3319 53.5541 41.5621C53.6803 41.7501 53.7912 41.9074 53.8944 42.0648C53.9193 42.0999 53.9541 42.1268 53.9943 42.1418C54.0345 42.1569 54.0783 42.1594 54.12 42.1492C54.728 42.1185 55.336 42.0878 55.9478 42.0724C56.5596 42.0571 57.0949 42.0724 57.6685 42.0724C58.1349 42.0724 58.5976 42.1223 59.0641 42.153C59.4503 42.2067 59.848 42.2336 60.2915 42.2681V42.2528ZM35.9421 56.2235H35.8694C35.82 56.4938 35.7855 56.7667 35.7662 57.0408C35.765 57.346 35.7829 57.651 35.8197 57.954C35.8856 58.7165 36.0135 59.4724 36.2021 60.214C36.5572 61.5406 37.1353 62.7967 37.9113 63.9283C37.9495 63.9859 37.9992 64.0319 38.0795 64.1278C38.0795 63.9628 38.0795 63.8592 38.0528 63.7441C38.0031 63.1571 37.9342 62.5662 37.9113 61.9752C37.9113 61.5378 37.9419 61.0966 37.9572 60.6591C37.9713 60.5794 37.9695 60.4975 37.9517 60.4185C37.934 60.3394 37.9008 60.2647 37.8539 60.1987C37.0705 59.2042 36.4839 58.0685 36.1256 56.8528C36.0492 56.6456 35.9956 56.4345 35.9421 56.2235V56.2235ZM44.9087 43.0854C44.8498 43.0683 44.7897 43.0555 44.729 43.0471C44.1822 42.9818 43.6316 42.9281 43.0848 42.859C42.6379 42.8238 42.1883 42.8445 41.7465 42.9204C41.6807 42.9285 41.6172 42.9501 41.56 42.9837C41.5028 43.0174 41.453 43.0624 41.4138 43.1161C40.8899 43.7379 40.4383 44.4176 40.0679 45.1421C40.0393 45.2118 40.0163 45.2836 39.9991 45.357C40.4235 45.1651 40.8097 44.9733 41.2035 44.8121C42.2297 44.3939 43.2938 44.0765 44.381 43.8643C44.4717 43.8543 44.5557 43.8121 44.6181 43.7454C44.7366 43.5382 44.8016 43.3156 44.9011 43.0854H44.9087ZM48.7324 44.8965C49.0774 44.9132 49.4211 44.8438 49.7327 44.6945C50.0443 44.5451 50.3142 44.3206 50.5181 44.0409C50.6118 43.933 50.6752 43.802 50.7017 43.6614C50.7283 43.5208 50.717 43.3756 50.6691 43.2408C50.6213 43.106 50.5385 42.9864 50.4292 42.8944C50.32 42.8023 50.1884 42.7411 50.0478 42.7171C49.5566 42.5756 49.0298 42.632 48.5795 42.8744C48.2313 43.0277 47.9483 43.2995 47.7803 43.6418C47.7212 43.7382 47.6841 43.8465 47.6716 43.959C47.6592 44.0715 47.6717 44.1854 47.7082 44.2925C47.7448 44.3996 47.8045 44.4972 47.883 44.5784C47.9616 44.6596 48.0571 44.7224 48.1627 44.7622C48.3494 44.8187 48.5398 44.8622 48.7324 44.8927V44.8965ZM45.6964 72.5233L45.7423 72.4696C45.1682 71.7362 44.6842 70.9362 44.3007 70.0868C44.2717 70.0132 44.2263 69.9473 44.168 69.8941C44.1097 69.8409 44.04 69.8018 43.9643 69.7798C43.1714 69.5118 42.4037 69.1741 41.67 68.7707L40.8632 68.3141L40.8173 68.3563C41.0582 68.7208 41.2991 69.0891 41.5438 69.4498C41.6254 69.5795 41.7216 69.6992 41.8306 69.8067C42.5357 70.454 43.2928 71.0418 44.0943 71.564C44.6296 71.9094 45.1649 72.2163 45.6964 72.5195V72.5233ZM39.1961 48.4535L39.2802 48.4957L39.7314 48.112C41.0452 47.0308 42.4813 46.1087 44.0101 45.3646L44.316 45.2073C44.3963 45.1651 44.4193 45.1037 44.3581 45.0116C44.3224 45.0097 44.2867 45.0097 44.251 45.0116C43.4399 45.1862 42.6435 45.4236 41.8689 45.7215C41.0675 46.0269 40.2989 46.4126 39.5746 46.8726C39.479 46.9378 39.3834 46.9915 39.3643 47.1258C39.307 47.5786 39.2458 48.0276 39.1884 48.465L39.1961 48.4535ZM56.8464 39.187C56.8196 39.1563 56.8081 39.1371 56.7928 39.1294C56.129 38.837 55.4354 38.6182 54.7242 38.4771C54.6728 38.4689 54.6203 38.4725 54.5706 38.4878C54.5209 38.5031 54.4753 38.5297 54.4374 38.5654C53.6498 39.1344 52.9175 39.7767 52.2502 40.4839C52.2251 40.5169 52.2021 40.5515 52.1814 40.5875C52.2388 40.6182 52.2885 40.6451 52.3344 40.6758C52.4016 40.7283 52.4843 40.7569 52.5695 40.7569C52.6547 40.7569 52.7375 40.7283 52.8047 40.6758C52.9374 40.6006 53.0754 40.5351 53.2176 40.4801C54.2608 39.983 55.3459 39.5798 56.4602 39.2752C56.5902 39.2829 56.701 39.2369 56.8387 39.1985L56.8464 39.187ZM42.9013 41.6312V41.7002L43.1766 41.7271C43.2989 41.7271 43.4251 41.7271 43.5589 41.7501C44.2204 41.8461 44.8781 41.9497 45.5396 42.0417C45.6103 42.056 45.6838 42.0437 45.7461 42.0072C45.9946 41.8077 46.2355 41.5928 46.5108 41.3626C46.154 40.8811 45.7589 40.4294 45.3293 40.0119C44.4607 40.4649 43.6439 41.0118 42.8936 41.6427L42.9013 41.6312ZM46.3808 39.5208L47.4744 40.8177L48.721 40.388L49.1951 38.5999C48.2286 38.8115 47.2858 39.1201 46.3808 39.5208V39.5208ZM52.9423 38.2699H51.9291C51.604 38.2699 51.1643 38.3121 50.7819 38.339C50.7347 38.3341 50.687 38.3426 50.6444 38.3637C50.6018 38.3847 50.566 38.4174 50.541 38.4579C50.232 39.0089 50.0223 39.6103 49.9216 40.2345L50.9196 40.2844L52.9423 38.2699ZM38.0795 48.0889C38.0184 48.1388 37.9725 48.1657 37.9342 48.2041C37.6666 48.5033 37.3989 48.8026 37.1274 49.0981C36.9941 49.2355 36.9106 49.4139 36.8904 49.6046C36.8598 49.9154 36.791 50.2262 36.7489 50.537C36.7068 50.8478 36.6992 51.0972 36.6762 51.3773C36.6988 51.375 36.7207 51.368 36.7404 51.3567C36.7601 51.3455 36.7774 51.3303 36.791 51.3121C37.2269 50.771 37.6666 50.2262 38.0948 49.6813C38.1439 49.6134 38.1694 49.5312 38.1675 49.4473C38.1446 49.0098 38.1101 48.5724 38.0795 48.0889V48.0889ZM60.3833 38.7534C59.1316 38.2615 57.8199 37.9401 56.4831 37.798C56.5163 37.8225 56.5522 37.8431 56.5902 37.8594C57.264 38.1076 57.911 38.4239 58.5211 38.8033C58.5941 38.8456 58.6779 38.8656 58.762 38.8608C59.2859 38.8263 59.8059 38.7879 60.3833 38.7534V38.7534ZM72.4968 54.3126C72.3401 54.8652 72.1833 55.4177 72.0303 55.9703C72.0093 56.0338 72.0093 56.1024 72.0303 56.1659C72.2062 56.6494 72.3898 57.129 72.5886 57.6509C72.6871 56.5371 72.6563 55.4155 72.4968 54.3088V54.3126ZM53.2138 43.3579C52.7779 43.4116 52.3917 43.4653 52.0055 43.5075C51.8755 43.5075 51.8105 43.5804 51.8029 43.7032C51.7952 43.826 51.8029 43.8337 51.8029 43.9104L53.2138 44.2174V43.3579ZM61.9816 72.93C60.7104 73.4538 59.4031 73.8846 58.0699 74.2193C59.4306 73.9836 60.7489 73.5465 61.9816 72.9224V72.93ZM48.4533 47.429V46.3853C48.2201 46.6775 48.052 47.0163 47.96 47.3791L48.4533 47.429ZM52.7664 45.2764L51.6461 45.027V45.0769L52.472 45.6985L52.7664 45.2764ZM50.1434 47.1949C49.956 46.8764 49.826 46.5695 49.6042 46.251V47.3292L50.1434 47.1949ZM51.172 46.746L51.5543 46.4927C51.3014 46.2233 50.9989 46.0057 50.6634 45.8519L51.172 46.746ZM46.5261 46.8573L46.8091 47.0184C46.9735 46.7076 47.1112 46.4313 47.2641 46.1014L46.5261 46.8573ZM45.9182 43.6111C46.1485 43.636 46.3814 43.6071 46.5988 43.5267C46.5104 43.4758 46.4151 43.4383 46.3158 43.4154C46.0902 43.3579 46.0902 43.3579 45.9296 43.5958L45.9182 43.6111ZM68.4093 44.4476C68.4322 44.8313 68.4552 44.8581 68.8146 44.9617L68.4093 44.4476ZM49.7304 41.4086V41.4777C49.9292 41.6043 49.9866 41.5928 50.086 41.3856L49.7304 41.4086ZM52.1661 42.3602L52.6097 42.295C52.4491 42.1338 52.4491 42.1338 52.1776 42.3449L52.1661 42.3602ZM45.9832 45.7522C45.7308 45.8251 45.7308 45.8251 45.7193 45.9977L45.9832 45.7522ZM48.3042 41.7002V41.7616L48.5527 41.6811V41.6312L48.3042 41.7002Z" fill="white"/>
<path d="M53.1153 120C52.882 119.95 52.6488 119.908 52.4155 119.854C51.4812 119.671 50.6123 119.241 49.8974 118.61C49.1826 117.979 48.6476 117.169 48.3471 116.263C47.5403 114.014 47.7965 111.862 49.2916 109.955C49.7734 109.328 50.3913 108.82 51.0983 108.469C51.8053 108.118 52.5827 107.933 53.3715 107.929C54.56 107.851 55.7334 108.231 56.6522 108.992C56.7822 109.103 56.9046 109.218 57.069 109.375V108.347C58.4036 108.273 59.741 108.267 61.0763 108.328V119.593H57.0919V118.423C57.0448 118.448 57 118.478 56.9581 118.511C56.3102 119.271 55.4093 119.769 54.423 119.912C54.3121 119.931 54.2012 119.966 54.0903 119.996L53.1153 120ZM52.0676 113.914C52.0578 114.256 52.1169 114.597 52.2414 114.915C52.3659 115.234 52.5532 115.524 52.7921 115.768C53.031 116.012 53.3165 116.205 53.6316 116.335C53.9467 116.466 54.2848 116.531 54.6256 116.528C55.3051 116.531 55.9579 116.263 56.4405 115.783C56.9231 115.303 57.196 114.65 57.199 113.968C57.202 113.286 56.9351 112.631 56.4568 112.147C55.9785 111.663 55.328 111.389 54.6486 111.386C54.3126 111.378 53.9783 111.437 53.6655 111.56C53.3527 111.684 53.0676 111.869 52.8271 112.104C52.5866 112.34 52.3955 112.622 52.2651 112.932C52.1346 113.243 52.0675 113.577 52.0676 113.914V113.914ZM21.822 113.726V119.981H17.5547C17.4973 119.762 17.4782 103.823 17.5318 103.366C17.6027 103.355 17.6741 103.347 17.7459 103.343H24.4106C25.1958 103.333 25.9754 103.477 26.7049 103.769C27.4658 104.061 28.1357 104.55 28.6457 105.188C29.1557 105.825 29.4876 106.587 29.6071 107.395C29.7589 108.2 29.7459 109.028 29.5688 109.828C29.435 110.529 29.1192 111.182 28.6532 111.721C28.1872 112.26 27.5877 112.666 26.9152 112.898C26.6666 112.994 26.4066 113.067 26.1122 113.162C26.9687 114.314 27.8329 115.419 28.6894 116.539C29.5459 117.659 30.41 118.791 31.2971 119.954C31.1786 119.954 31.1098 119.977 31.0371 119.977H26.1848C26.1061 119.981 26.0279 119.961 25.96 119.921C25.8921 119.881 25.8373 119.822 25.8025 119.751C24.5661 117.822 23.3272 115.893 22.0858 113.964C22.0246 113.868 21.9596 113.776 21.8946 113.684L21.822 113.726ZM25.4086 108.8C25.4676 108.383 25.4283 107.959 25.2939 107.56C25.2094 107.27 25.0631 107.001 24.8651 106.772C24.667 106.544 24.422 106.361 24.1468 106.237C23.7707 106.069 23.365 105.977 22.9534 105.968C22.5418 105.959 22.1325 106.032 21.7493 106.183C21.4333 106.298 21.1485 106.486 20.9175 106.731C20.6865 106.976 20.5157 107.272 20.4187 107.595C20.3246 107.937 20.2834 108.292 20.2963 108.646C20.2896 109.138 20.44 109.619 20.7256 110.019C21.0112 110.419 21.4168 110.716 21.8832 110.868C22.237 111.008 22.616 111.072 22.996 111.056C23.376 111.04 23.7484 110.945 24.0894 110.776C24.675 110.455 25.1167 109.923 25.3245 109.287C25.3486 109.216 25.3678 109.142 25.3819 109.068H23.7721C23.3629 109.809 23.0647 109.974 22.5255 109.77C22.3384 109.698 22.1841 109.559 22.0918 109.38C21.9996 109.201 21.9757 108.995 22.0246 108.8H25.4086ZM82.3629 110.039C82.4355 109.966 82.5082 109.893 82.5732 109.817C82.9359 109.398 83.3826 109.061 83.884 108.828C84.3855 108.594 84.9303 108.47 85.483 108.462C86.1046 108.42 86.729 108.466 87.3376 108.6C88.0018 108.746 88.6103 109.08 89.0904 109.563C89.5705 110.046 89.9018 110.657 90.0447 111.324C90.1586 111.742 90.2177 112.173 90.2206 112.606C90.2398 115.004 90.2206 117.406 90.2206 119.804V119.992H86.2516V119.655V114.352C86.2523 113.931 86.2203 113.51 86.156 113.093C86.1152 112.676 85.9148 112.29 85.5969 112.018C85.2789 111.745 84.8681 111.607 84.4506 111.631C84.2882 111.628 84.1258 111.639 83.965 111.662C83.5522 111.715 83.1696 111.907 82.8798 112.207C82.5901 112.507 82.4105 112.896 82.3705 113.312C82.3355 113.559 82.3176 113.807 82.317 114.056V120H78.3862C78.3289 119.804 78.3021 102.219 78.3671 101.686H82.3055V110.02L82.3629 110.039ZM46.9591 116.316V119.931C46.745 119.996 38.134 120.023 37.5757 119.966C37.5183 119.758 37.4916 103.934 37.5489 103.386C37.7516 103.32 46.6455 103.309 46.9553 103.386V107.008H41.8621V109.793H46.6685V113.454H41.8659V116.328L46.9591 116.316ZM70.7617 108.608V105.35C70.9797 105.285 74.3828 105.27 74.7575 105.331V108.685H76.9982V112.042C76.2717 112.061 75.5376 112.042 74.7652 112.042V120.004H70.7694V118.688V111.988C70.5739 111.916 70.3714 111.865 70.1652 111.835C69.622 111.789 69.0758 111.789 68.5325 111.835C67.3854 111.981 66.7009 112.683 66.4639 113.845C66.3862 114.224 66.3452 114.61 66.3415 114.997V119.847H62.3649V108.616C62.5752 108.562 65.8903 108.543 66.3224 108.616V110.315L66.3721 110.335C66.4218 110.269 66.4753 110.212 66.5251 110.146C66.8534 109.683 67.2644 109.285 67.7372 108.972C68.1253 108.72 68.5719 108.574 69.0334 108.546C69.32 108.531 69.6072 108.531 69.8937 108.546C70.1767 108.531 70.4558 108.589 70.7617 108.608V108.608ZM33.5646 114.302C34.0747 114.301 34.5735 114.452 34.9979 114.736C35.4223 115.02 35.7532 115.424 35.9487 115.897C36.1442 116.369 36.1956 116.89 36.0963 117.392C35.997 117.894 35.7514 118.355 35.3908 118.717C35.0301 119.079 34.5706 119.325 34.0703 119.425C33.57 119.525 33.0515 119.473 32.5804 119.277C32.1093 119.081 31.7069 118.749 31.424 118.323C31.1411 117.897 30.9905 117.396 30.9912 116.884C30.9902 116.545 31.0561 116.209 31.1851 115.895C31.314 115.581 31.5036 115.296 31.7427 115.056C31.9819 114.816 32.266 114.626 32.5786 114.497C32.8913 114.367 33.2264 114.301 33.5646 114.302ZM33.5761 106.862C34.0863 106.864 34.5846 107.017 35.0078 107.303C35.431 107.589 35.7601 107.994 35.9534 108.468C36.1467 108.942 36.1955 109.463 36.0937 109.964C35.9918 110.466 35.7438 110.926 35.3812 111.286C35.0186 111.646 34.5576 111.89 34.0566 111.987C33.5556 112.084 33.0372 112.03 32.5671 111.831C32.097 111.632 31.6963 111.298 31.4157 110.87C31.1352 110.443 30.9875 109.941 30.9912 109.429C30.9917 109.09 31.0591 108.754 31.1895 108.441C31.3199 108.128 31.5108 107.844 31.7511 107.605C31.9913 107.367 32.2763 107.178 32.5895 107.051C32.9028 106.923 33.238 106.859 33.5761 106.862Z" fill="white"/>
<path d="M23.4547 107.641C23.4529 107.73 23.4336 107.819 23.3978 107.901C23.3619 107.983 23.3103 108.058 23.2459 108.12C23.1814 108.182 23.1054 108.231 23.0222 108.263C22.9389 108.296 22.8501 108.312 22.7607 108.31C22.6713 108.309 22.5832 108.289 22.5013 108.253C22.4193 108.217 22.3453 108.165 22.2833 108.101C22.2214 108.036 22.1727 107.96 22.1401 107.876C22.1076 107.793 22.0917 107.704 22.0935 107.614C22.1023 107.436 22.1793 107.269 22.3082 107.146C22.4372 107.024 22.6082 106.957 22.7855 106.958C22.9628 106.965 23.1308 107.039 23.2552 107.166C23.3796 107.293 23.4509 107.463 23.4547 107.641V107.641Z" fill="white"/>
</g>
<defs>
<clipPath id="clip0_8970:172354">
<rect width="108.387" height="120" fill="white"/>
</clipPath>
</defs>
</svg>
