
<svg width="120" height="120" viewBox="0 0 120 120" fill="none" xmlns="http://www.w3.org/2000/svg">
    <path d="M65.9645 32.8298L64.3242 31.6856C63.8979 32.2968 63.8467 33.0942 64.1913 33.7549C64.536 34.4155 65.2194 34.8298 65.9645 34.8298V32.8298ZM89.1702 32.8298H91.1702C91.1702 31.7252 90.2748 30.8298 89.1702 30.8298V32.8298ZM89.1702 56.0355H87.1702C87.1702 56.7806 87.5845 57.464 88.2451 57.8087C88.9058 58.1533 89.7032 58.1021 90.3144 57.6758L89.1702 56.0355ZM89.1702 77.7943L90.3144 76.1539C89.7032 75.7276 88.9058 75.6765 88.2451 76.0211C87.5845 76.3658 87.1702 77.0492 87.1702 77.7943H89.1702ZM89.1702 101V103C90.2748 103 91.1702 102.105 91.1702 101H89.1702ZM21 101H19C19 102.105 19.8954 103 21 103V101ZM21 77.795L22.1442 76.1546C21.533 75.7283 20.7355 75.6772 20.0749 76.0218C19.4142 76.3665 19 77.0499 19 77.795H21ZM21 56.0358H19C19 56.781 19.4142 57.4643 20.0749 57.809C20.7355 58.1537 21.533 58.1025 22.1442 57.6762L21 56.0358ZM21 32.8298V30.8298C19.8954 30.8298 19 31.7252 19 32.8298H21ZM44.2057 32.8298V34.8298C44.9508 34.8298 45.6342 34.4155 45.9789 33.7549C46.3235 33.0942 46.2724 32.2968 45.8461 31.6856L44.2057 32.8298ZM67.6049 33.974C69.329 31.5022 70.3404 28.4939 70.3404 25.2553H66.3404C66.3404 27.6493 65.5952 29.8633 64.3242 31.6856L67.6049 33.974ZM89.1702 30.8298H65.9645V34.8298H89.1702V30.8298ZM91.1702 56.0355V32.8298H87.1702V56.0355H91.1702ZM96.7447 51.6596C93.5061 51.6596 90.4978 52.671 88.026 54.3951L90.3144 57.6758C92.1367 56.4048 94.3507 55.6596 96.7447 55.6596V51.6596ZM112 66.9149C112 58.4896 105.17 51.6596 96.7447 51.6596V55.6596C102.961 55.6596 108 60.6988 108 66.9149H112ZM96.7447 82.1702C105.17 82.1702 112 75.3402 112 66.9149H108C108 73.131 102.961 78.1702 96.7447 78.1702V82.1702ZM88.026 79.4347C90.4978 81.1588 93.5061 82.1702 96.7447 82.1702V78.1702C94.3507 78.1702 92.1367 77.425 90.3144 76.1539L88.026 79.4347ZM91.1702 101V77.7943H87.1702V101H91.1702ZM21 103H89.1702V99H21V103ZM19 77.795V101H23V77.795H19ZM28.5742 78.1707C26.1803 78.1707 23.9664 77.4256 22.1442 76.1546L19.8558 79.4354C22.3276 81.1594 25.3358 82.1707 28.5742 82.1707V78.1707ZM39.8295 66.9154C39.8295 73.1316 34.7904 78.1707 28.5742 78.1707V82.1707C36.9995 82.1707 43.8295 75.3407 43.8295 66.9154H39.8295ZM28.5742 55.6601C34.7904 55.6601 39.8295 60.6993 39.8295 66.9154H43.8295C43.8295 58.4901 36.9995 51.6601 28.5742 51.6601V55.6601ZM22.1442 57.6762C23.9664 56.4052 26.1803 55.6601 28.5742 55.6601V51.6601C25.3358 51.6601 22.3276 52.6714 19.8558 54.3954L22.1442 57.6762ZM19 32.8298V56.0358H23V32.8298H19ZM44.2057 30.8298H21V34.8298H44.2057V30.8298ZM39.8298 25.2553C39.8298 28.4939 40.8412 31.5022 42.5653 33.974L45.8461 31.6856C44.575 29.8633 43.8298 27.6493 43.8298 25.2553H39.8298ZM55.0851 10C46.6598 10 39.8298 16.83 39.8298 25.2553H43.8298C43.8298 19.0392 48.869 14 55.0851 14V10ZM70.3404 25.2553C70.3404 16.83 63.5104 10 55.0851 10V14C61.3012 14 66.3404 19.0392 66.3404 25.2553H70.3404Z" fill="#E95518"/>
    </svg>
    